<mxfile host="app.diagrams.net" agent="Mozilla/5.0 (Windows NT 10.0; Win64; x64; rv:136.0) Gecko/20100101 Firefox/136.0" version="26.2.4">
  <diagram name="Page-1" id="bZOQlzKsjz7RixbyRU3d">
    <mxGraphModel dx="1428" dy="787" grid="1" gridSize="10" guides="1" tooltips="1" connect="1" arrows="1" fold="1" page="1" pageScale="1" pageWidth="827" pageHeight="1169" math="0" shadow="0">
      <root>
        <mxCell id="0" />
        <mxCell id="1" parent="0" />
        <mxCell id="hLxYlyaVBKvgsfCYJlWP-1" value="Admin" style="shape=umlActor;verticalLabelPosition=bottom;verticalAlign=top;html=1;outlineConnect=0;" vertex="1" parent="1">
          <mxGeometry x="70" y="120" width="30" height="60" as="geometry" />
        </mxCell>
        <mxCell id="hLxYlyaVBKvgsfCYJlWP-2" value="Utilsateur" style="shape=umlActor;verticalLabelPosition=bottom;verticalAlign=top;html=1;outlineConnect=0;" vertex="1" parent="1">
          <mxGeometry x="70" y="360" width="30" height="60" as="geometry" />
        </mxCell>
        <mxCell id="hLxYlyaVBKvgsfCYJlWP-3" value="" style="rounded=0;whiteSpace=wrap;html=1;" vertex="1" parent="1">
          <mxGeometry x="160" y="20" width="500" height="670" as="geometry" />
        </mxCell>
        <mxCell id="hLxYlyaVBKvgsfCYJlWP-4" value="Gerer utilisateu(3)" style="ellipse;whiteSpace=wrap;html=1;" vertex="1" parent="1">
          <mxGeometry x="267.5" y="30" width="230" height="60" as="geometry" />
        </mxCell>
        <mxCell id="hLxYlyaVBKvgsfCYJlWP-5" value="" style="endArrow=none;html=1;rounded=0;entryX=0;entryY=0.5;entryDx=0;entryDy=0;" edge="1" parent="1" target="hLxYlyaVBKvgsfCYJlWP-4">
          <mxGeometry width="50" height="50" relative="1" as="geometry">
            <mxPoint x="120" y="160" as="sourcePoint" />
            <mxPoint x="440" y="380" as="targetPoint" />
          </mxGeometry>
        </mxCell>
        <mxCell id="hLxYlyaVBKvgsfCYJlWP-7" value="&lt;div&gt;&lt;br&gt;&lt;/div&gt;&lt;div&gt;Ce connecter(2)&lt;/div&gt;&lt;div&gt;&lt;br&gt;&lt;/div&gt;" style="ellipse;whiteSpace=wrap;html=1;" vertex="1" parent="1">
          <mxGeometry x="282.5" y="370" width="215" height="60" as="geometry" />
        </mxCell>
        <mxCell id="hLxYlyaVBKvgsfCYJlWP-8" value="" style="endArrow=none;html=1;rounded=0;entryX=0;entryY=0.5;entryDx=0;entryDy=0;" edge="1" parent="1" target="hLxYlyaVBKvgsfCYJlWP-7">
          <mxGeometry width="50" height="50" relative="1" as="geometry">
            <mxPoint x="120" y="400" as="sourcePoint" />
            <mxPoint x="440" y="380" as="targetPoint" />
          </mxGeometry>
        </mxCell>
        <mxCell id="hLxYlyaVBKvgsfCYJlWP-9" value="Gerer raid(5)" style="ellipse;whiteSpace=wrap;html=1;" vertex="1" parent="1">
          <mxGeometry x="267.5" y="100" width="230" height="60" as="geometry" />
        </mxCell>
        <mxCell id="hLxYlyaVBKvgsfCYJlWP-10" value="" style="endArrow=none;html=1;rounded=0;entryX=0;entryY=0.5;entryDx=0;entryDy=0;" edge="1" parent="1" target="hLxYlyaVBKvgsfCYJlWP-9">
          <mxGeometry width="50" height="50" relative="1" as="geometry">
            <mxPoint x="120" y="160" as="sourcePoint" />
            <mxPoint x="440" y="380" as="targetPoint" />
          </mxGeometry>
        </mxCell>
        <mxCell id="hLxYlyaVBKvgsfCYJlWP-11" value="Gerer disponibilité(4)" style="ellipse;whiteSpace=wrap;html=1;" vertex="1" parent="1">
          <mxGeometry x="275" y="170" width="230" height="60" as="geometry" />
        </mxCell>
        <mxCell id="hLxYlyaVBKvgsfCYJlWP-12" value="" style="endArrow=none;html=1;rounded=0;entryX=0;entryY=0.5;entryDx=0;entryDy=0;" edge="1" parent="1" target="hLxYlyaVBKvgsfCYJlWP-11">
          <mxGeometry width="50" height="50" relative="1" as="geometry">
            <mxPoint x="120" y="160" as="sourcePoint" />
            <mxPoint x="440" y="380" as="targetPoint" />
          </mxGeometry>
        </mxCell>
        <mxCell id="hLxYlyaVBKvgsfCYJlWP-13" value="Creer compte(1)" style="ellipse;whiteSpace=wrap;html=1;" vertex="1" parent="1">
          <mxGeometry x="282.5" y="440" width="215" height="60" as="geometry" />
        </mxCell>
        <mxCell id="hLxYlyaVBKvgsfCYJlWP-14" value="" style="endArrow=none;html=1;rounded=0;entryX=0;entryY=0.5;entryDx=0;entryDy=0;" edge="1" parent="1" target="hLxYlyaVBKvgsfCYJlWP-13">
          <mxGeometry width="50" height="50" relative="1" as="geometry">
            <mxPoint x="120" y="400" as="sourcePoint" />
            <mxPoint x="440" y="380" as="targetPoint" />
          </mxGeometry>
        </mxCell>
        <mxCell id="hLxYlyaVBKvgsfCYJlWP-15" value="Gerer Stratégie(6)" style="ellipse;whiteSpace=wrap;html=1;" vertex="1" parent="1">
          <mxGeometry x="275" y="240" width="215" height="60" as="geometry" />
        </mxCell>
        <mxCell id="hLxYlyaVBKvgsfCYJlWP-16" value="" style="endArrow=none;html=1;rounded=0;entryX=0;entryY=0.5;entryDx=0;entryDy=0;" edge="1" parent="1" target="hLxYlyaVBKvgsfCYJlWP-15">
          <mxGeometry width="50" height="50" relative="1" as="geometry">
            <mxPoint x="120" y="160" as="sourcePoint" />
            <mxPoint x="440" y="380" as="targetPoint" />
          </mxGeometry>
        </mxCell>
        <mxCell id="hLxYlyaVBKvgsfCYJlWP-17" value="Recevoir notification(7)" style="ellipse;whiteSpace=wrap;html=1;" vertex="1" parent="1">
          <mxGeometry x="282.5" y="510" width="215" height="60" as="geometry" />
        </mxCell>
        <mxCell id="hLxYlyaVBKvgsfCYJlWP-18" value="" style="endArrow=none;html=1;rounded=0;entryX=0;entryY=0.5;entryDx=0;entryDy=0;" edge="1" parent="1" target="hLxYlyaVBKvgsfCYJlWP-17">
          <mxGeometry width="50" height="50" relative="1" as="geometry">
            <mxPoint x="120" y="400" as="sourcePoint" />
            <mxPoint x="440" y="380" as="targetPoint" />
          </mxGeometry>
        </mxCell>
        <mxCell id="hLxYlyaVBKvgsfCYJlWP-19" value="Suivre Performance(8)" style="ellipse;whiteSpace=wrap;html=1;" vertex="1" parent="1">
          <mxGeometry x="282.5" y="590" width="215" height="60" as="geometry" />
        </mxCell>
        <mxCell id="hLxYlyaVBKvgsfCYJlWP-20" value="" style="endArrow=none;html=1;rounded=0;entryX=0;entryY=0.5;entryDx=0;entryDy=0;" edge="1" parent="1" target="hLxYlyaVBKvgsfCYJlWP-19">
          <mxGeometry width="50" height="50" relative="1" as="geometry">
            <mxPoint x="120" y="400" as="sourcePoint" />
            <mxPoint x="440" y="380" as="targetPoint" />
          </mxGeometry>
        </mxCell>
        <mxCell id="hLxYlyaVBKvgsfCYJlWP-21" value="" style="endArrow=block;html=1;rounded=0;endFill=0;" edge="1" parent="1" target="hLxYlyaVBKvgsfCYJlWP-2">
          <mxGeometry width="50" height="50" relative="1" as="geometry">
            <mxPoint x="85" y="200" as="sourcePoint" />
            <mxPoint x="440" y="380" as="targetPoint" />
          </mxGeometry>
        </mxCell>
      </root>
    </mxGraphModel>
  </diagram>
</mxfile>
